<svg enable-background="new 0 0 256 256" height="256px" id="Layer_1" version="1.1" viewBox="0 0 256 256" width="256px" xml:space="preserve" xmlns="http://www.w3.org/2000/svg" xmlns:xlink="http://www.w3.org/1999/xlink"><path d="M245.084,144.453c-69.337,0-84.631-6.877-102.186-20.579c25.653-33.066,80.75-107.192,81.321-107.961  c1.977-2.66,1.422-6.419-1.237-8.395c-2.66-1.979-6.418-1.423-8.395,1.236c-0.569,0.768-55.355,74.475-80.992,107.533  C105.859,91.332,98.463,31.924,98.39,31.313c-0.24-2.012-1.946-3.526-3.972-3.526h-6c-0.389,0-0.776,0.057-1.149,0.169  c-1.894,0.567-5.374,1.612-12.774,33.775c-7.007,0.948-23.641,5.134-32.064,23.561L9.699,97.368c-1.301,0.48-2.261,1.601-2.536,2.96  c-0.08,0.394-1.865,9.742,5.461,18.698c8.042,9.831,23.426,15.106,45.767,15.703c-0.289,4.525-0.51,12.236,0.25,21.965  c-0.704-1.488-2.284-2.157-2.284-2.157c-1.163-0.533-3.194-0.406-4.035,1.427c-0.912,1.989,0.323,3.858,0.516,4.577  c0.192,0.72-0.196,1.4-0.196,1.4l-3.051,6.65l-3.051,6.65c0,0-0.263,0.739-0.934,1.063c-0.67,0.323-2.892,0.605-3.805,2.595  c-0.841,1.834,0.388,3.456,1.55,3.989c0,0,2.741,1.36,4.682-0.594c0,0,0.085-0.101,0.205-0.046c0.121,0.056,0.1,0.186,0.1,0.186  c-0.214,2.744,2.604,3.937,2.604,3.937c1.162,0.531,3.193,0.406,4.034-1.428c0.912-1.99-0.322-3.858-0.515-4.578  c-0.192-0.719,0.196-1.4,0.196-1.4l3.05-6.65l2.139-4.664c0.139,0.975,0.287,1.96,0.447,2.958  c3.393,21.209,12.573,51.924,37.036,77.807c0.787,0.832,1.846,1.252,2.907,1.252c0.986,0,1.974-0.363,2.747-1.094  c1.605-1.518,1.677-4.049,0.159-5.654c-24.708-26.141-33.188-57.826-35.854-80.75c1.401,0.112,3.162,0.202,5.238,0.202  c13.913,0,41.652-4.038,65.385-32.233c18.929,14.858,34.818,22.314,107.172,22.314c2.209,0,4-1.791,4-4  S247.293,144.453,245.084,144.453z M66.321,150.007c-0.482-11.267,0.37-18.498,0.397-18.711c0.146-1.14-0.205-2.288-0.964-3.151  s-1.854-1.358-3.003-1.358c-27.451,0-38.971-6.888-43.801-12.665c-3.269-3.91-3.965-7.839-4.045-10.146l31.898-11.77  c1.049-0.388,1.888-1.196,2.314-2.229C57.29,70.125,76.989,69.47,77.809,69.453c1.85-0.027,3.439-1.319,3.845-3.124  c4.678-20.837,7.58-28.132,8.797-30.542h0.481c2.069,13.768,11.178,63.294,37.683,86.765  C102.293,153.679,70.953,150.655,66.321,150.007z" fill="#F0C061"/></svg>
